<?xml version="1.0" standalone="no"?>
<!DOCTYPE svg PUBLIC "-//W3C//DTD SVG 1.1//EN" "http://www.w3.org/Graphics/SVG/1.1/DTD/svg11.dtd" >
<!--
2013-9-30: Created.
-->
<svg>
<metadata>
Created by iconfont
</metadata>
<defs>

<font id="iconfont" horiz-adv-x="1024" >
  <font-face
    font-family="iconfont"
    font-weight="500"
    font-stretch="normal"
    units-per-em="1024"
    ascent="896"
    descent="-128"
  />
    <missing-glyph />
    
    <glyph glyph-name="shenhe" unicode="&#58926;" d="M832 672l-57.6 0L774.4 736 638.4 736l0-64L375.1744 672 375.1744 736l-136 0 0-64L192 672c-35.3472 0-64-28.6528-64-64l0-512c0-35.3472 28.6528-64 64-64l640 0c35.3344 0 64 28.6528 64 64L896 608C896 643.3472 867.3344 672 832 672zM664.8 704.5312l81.6 0 0-139.2-81.6 0L664.8 704.5312zM464.4416 428.9408c1.8368-7.008 2.6752-14.1312 2.7584-22.432 0-36.2688-24.1984-69.3312-60.7424-81.056-46.5408-14.9312-95.7888 10.4896-110.5856 56.288-10.8992 33.7472 0.8064 71.3344 28.8064 93.184 13.4208 10.4704 28.5568 16.7808 45.4656 18.5408C414.2976 498.048 453.7728 469.8624 464.4416 428.9408zM267.2 704.5312 348.8 704.5312l0-139.2L267.2 565.3312 267.2 704.5312zM526.1952 194.9952c-0.4288-8.0384-4.928-13.7088-11.6288-17.76-6.8544-4.1344-14.4704-6.0992-22.2272-7.52-18.528-3.3856-37.2736-3.5264-56.0128-3.68-18.0032-0.1344-36.0192-0.032-54.0288-0.032 0 0 0 0.0256 0 0.032-19.232 0-38.4704-0.1664-57.696 0.0704-12.2048 0.1536-24.416 0.64-36.576 1.5104-11.0208 0.7936-21.9584 2.4896-32.2432 6.9056-5.7664 2.4768-10.7776 5.952-13.888 11.6416-1.8688 3.4048-2.5024 7.0848-2.6368 10.9184-0.7296 20.6656 3.1552 40.32 13.3184 58.4768 13.2032 23.6032 32.5376 40.2112 57.7344 49.984 13.0176 5.0368 26.56 7.2512 40.4736 7.2768 21.3696 0.032 42.7392 0.0768 64.1024-0.0128 28.3456-0.128 53.44-9.216 74.7008-28.0384 18.9696-16.7808 30.7328-37.7664 35.2-62.7712C526.4 213.0496 526.6816 204.0256 526.1952 194.9952zM774.4 177.6 618.9312 177.6l0 47.8336L774.4 225.4336 774.4 177.6zM774.4 255.7568 618.9312 255.7568l0 47.8336L774.4 303.5904 774.4 255.7568zM774.4 331.0976 618.9312 331.0976l0 47.8336L774.4 378.9312 774.4 331.0976zM774.4 407.6288 618.9312 407.6288l0 47.8336L774.4 455.4624 774.4 407.6288z"  horiz-adv-x="1024" />

    
    <glyph glyph-name="shaixuantiaojian" unicode="&#59043;" d="M113.90464 691.80928c-58.07616 0-105.1904-45.52704-105.1904-101.71392 0-56.15616 47.11424-101.67296 105.1904-101.67296 58.1376 0 105.25696 45.52192 105.25696 101.67296C219.15648 646.28736 172.04224 691.80928 113.90464 691.80928zM113.90464 420.57728c-58.07616 0-105.1904-45.52192-105.1904-101.71392 0-56.15616 47.11424-101.67296 105.1904-101.67296 58.1376 0 105.25696 45.52192 105.25696 101.67296C219.15648 375.05536 172.04224 420.57728 113.90464 420.57728zM113.90464 149.34528c-58.07616 0-105.1904-45.52192-105.1904-101.71392 0-56.15104 47.11424-101.7088 105.1904-101.7088 58.1376 0 105.25696 45.55776 105.25696 101.7088C219.15648 103.82336 172.04224 149.34528 113.90464 149.34528zM394.50624 522.32704l561.1776 0c38.72768 0 70.144 30.33088 70.144 67.77344 0 37.44768-31.41632 67.84-70.144 67.84L394.50624 657.94048c-38.73792 0-70.16448-30.39232-70.16448-67.84C324.34176 552.6528 355.7632 522.32704 394.50624 522.32704zM955.68384 386.67264 394.50624 386.67264c-38.73792 0-70.16448-30.35648-70.16448-67.80928 0-37.44256 31.42144-67.80928 70.16448-67.80928l561.1776 0c38.72768 0 70.144 30.36672 70.144 67.80928C1025.82784 356.31616 994.41664 386.67264 955.68384 386.67264zM955.68384 115.44064 394.50624 115.44064c-38.73792 0-70.16448-30.3616-70.16448-67.80928 0-37.44256 31.42144-67.76832 70.16448-67.76832l561.1776 0c38.72768 0 70.144 30.33088 70.144 67.76832C1025.82784 85.07904 994.41664 115.44064 955.68384 115.44064z"  horiz-adv-x="1026" />

    
    <glyph glyph-name="xinghao" unicode="&#58956;" d="M876.8 236.8 620.8 384l256 147.2c25.6 12.8 38.4 51.2 19.2 76.8-12.8 25.6-51.2 38.4-76.8 19.2l-256-147.2L563.2 774.4C569.6 806.4 544 832 512 832S454.4 806.4 454.4 774.4l0-294.4-256 147.2C179.2 646.4 140.8 633.6 128 608c-12.8-25.6-6.4-64 19.2-76.8l256-147.2-256-147.2c-25.6-12.8-38.4-51.2-19.2-76.8 12.8-19.2 32-25.6 51.2-25.6 6.4 0 19.2 0 25.6 6.4l256 147.2 0-294.4C454.4-38.4 480-64 512-64s57.6 25.6 57.6 57.6L569.6 288l256-147.2c6.4-6.4 19.2-6.4 25.6-6.4 19.2 0 38.4 12.8 51.2 25.6C908.8 185.6 902.4 224 876.8 236.8z"  horiz-adv-x="1024" />

    
    <glyph glyph-name="faxian2" unicode="&#58995;" d="M512.341 774.554c-209.92 0-390.622-159.744-473.634-390.622 83.422-230.4 263.714-390.622 473.634-390.622s390.622 159.744 473.634 390.622c-83.49 230.878-263.714 390.622-473.634 390.622zM513.297 142.541c-120.149 0-224.87 110.455-224.87 239.002s104.38 239.002 224.87 239.002 224.87-110.455 224.87-239.002-104.311-239.002-224.87-239.002zM512.341 510.703c-1.502 0-2.594 0-4.096 0 6.622-43.554-4.096-82.944-32.222-104.994-21.982-17.954-51.678-21.982-82.944-14.336 0-2.594 0-5.12 0-7.168 0-70.178 53.248-126.976 119.262-126.976 66.014 0 119.262 56.798 119.262 126.976s-53.794 126.498-119.262 126.498z"  horiz-adv-x="1024" />

    
    <glyph glyph-name="arrow-left1" unicode="&#58973;" d="M658.10806201 383.68024905000004l-378.20582873 378.2110069c-15.89692997 15.88398459-15.89692997 41.6660088 0 57.55128793 15.88398459 15.89692997 41.6660088 15.89692997 57.55128794 0l406.98729813-406.98729813c15.89692997-15.88398459 15.89692997-41.6660088 1e-8-57.55128794l-406.98729814-406.98600359c-7.94328684-7.94846498-18.3604363-11.92399202-28.77499669-11.92399203s-20.83170987 3.97552703-28.77499671 11.92399203c-15.89692997 15.88398459-15.89692997 41.6660088 0 57.55128793l378.20582875 378.21230143z"  horiz-adv-x="1024" />

    
    <glyph glyph-name="chuanshuliebiao" unicode="&#58898;" d="M384.4 768c-17.7 0-32-14.3-32-32v-626.7L186 275.7c-12.5 12.5-32.8 12.5-45.3 0s-12.5-32.8 0-45.3l221-221c0.4-0.4 0.8-0.7 1.1-1.1 0.2-0.2 0.4-0.3 0.6-0.5 0.2-0.2 0.4-0.4 0.6-0.5 0.2-0.2 0.5-0.4 0.7-0.6 0.2-0.1 0.3-0.3 0.5-0.4 0.3-0.2 0.6-0.4 0.8-0.6 0.1-0.1 0.3-0.2 0.4-0.3l0.9-0.6c0.1-0.1 0.3-0.2 0.4-0.3 0.3-0.2 0.6-0.3 0.9-0.5 0.2-0.1 0.3-0.2 0.5-0.3 0.3-0.1 0.6-0.3 0.8-0.4l0.6-0.3c0.3-0.1 0.5-0.2 0.8-0.3 0.2-0.1 0.5-0.2 0.7-0.3 0.2-0.1 0.5-0.2 0.7-0.3 0.3-0.1 0.5-0.2 0.8-0.3 0.2-0.1 0.4-0.1 0.6-0.2l0.9-0.3c0.2-0.1 0.4-0.1 0.5-0.2 0.3-0.1 0.6-0.2 1-0.3 0.2 0 0.3-0.1 0.5-0.1 0.3-0.1 0.7-0.2 1-0.2 0.2 0 0.4-0.1 0.5-0.1 0.3-0.1 0.7-0.1 1-0.2 0.2 0 0.4-0.1 0.6-0.1 0.3 0 0.6-0.1 0.9-0.1 0.3 0 0.5 0 0.8-0.1 0.2 0 0.5 0 0.7-0.1h3.2c0.3 0 0.5 0 0.7 0.1 0.3 0 0.5 0 0.8 0.1 0.3 0 0.6 0.1 0.9 0.1 0.2 0 0.4 0 0.6 0.1 0.3 0 0.7 0.1 1 0.2 0.2 0 0.4 0.1 0.5 0.1 0.3 0.1 0.7 0.1 1 0.2 0.2 0 0.3 0.1 0.5 0.1 0.3 0.1 0.6 0.2 1 0.3 0.2 0.1 0.4 0.1 0.5 0.2l0.9 0.3c0.2 0.1 0.4 0.1 0.6 0.2 0.3 0.1 0.5 0.2 0.8 0.3 0.2 0.1 0.5 0.2 0.7 0.3 0.2 0.1 0.5 0.2 0.7 0.3 0.3 0.1 0.5 0.2 0.8 0.3l0.6 0.3c0.3 0.1 0.6 0.3 0.8 0.4 0.2 0.1 0.3 0.2 0.5 0.3 0.3 0.2 0.6 0.3 0.9 0.5 0.1 0.1 0.3 0.2 0.4 0.3l0.9 0.6c0.1 0.1 0.3 0.2 0.4 0.3 0.3 0.2 0.6 0.4 0.8 0.6 0.2 0.1 0.3 0.3 0.5 0.4 0.2 0.2 0.5 0.4 0.7 0.6 0.2 0.2 0.4 0.4 0.6 0.5 0.2 0.2 0.4 0.3 0.6 0.5 0.8 0.7 1.5 1.5 2.2 2.2 0.2 0.2 0.3 0.4 0.5 0.6 0.2 0.2 0.4 0.4 0.5 0.6 0.2 0.2 0.4 0.5 0.6 0.7 0.1 0.2 0.3 0.3 0.4 0.5 0.2 0.3 0.4 0.5 0.6 0.8 0.1 0.1 0.2 0.3 0.3 0.4l0.6 0.9c0.1 0.1 0.2 0.3 0.3 0.4 0.2 0.3 0.3 0.6 0.5 0.9 0.1 0.2 0.2 0.3 0.3 0.5 0.1 0.3 0.3 0.6 0.4 0.8l0.3 0.6c0.1 0.3 0.2 0.5 0.3 0.8 0.1 0.2 0.2 0.5 0.3 0.7 0.1 0.2 0.2 0.5 0.3 0.7 0.1 0.3 0.2 0.5 0.3 0.8 0.1 0.2 0.1 0.4 0.2 0.6l0.3 0.9c0.1 0.2 0.1 0.4 0.2 0.5 0.1 0.3 0.2 0.6 0.3 1 0 0.2 0.1 0.3 0.1 0.5 0.1 0.3 0.2 0.7 0.2 1 0 0.2 0.1 0.3 0.1 0.5 0.1 0.3 0.1 0.7 0.2 1 0 0.2 0.1 0.4 0.1 0.6 0 0.3 0.1 0.6 0.1 0.9 0 0.3 0 0.5 0.1 0.8 0 0.3 0 0.5 0.1 0.8V736c0.3 17.7-14 32-31.7 32zM884.1 537.7l-221 221c-0.4 0.4-0.8 0.7-1.2 1.1-0.2 0.2-0.4 0.3-0.6 0.5-0.2 0.2-0.4 0.4-0.6 0.5-0.2 0.2-0.5 0.4-0.7 0.6-0.2 0.1-0.3 0.3-0.5 0.4-0.3 0.2-0.6 0.4-0.8 0.6-0.1 0.1-0.3 0.2-0.4 0.3l-0.9 0.6c-0.1 0.1-0.3 0.2-0.4 0.3-0.3 0.2-0.6 0.3-0.9 0.5-0.2 0.1-0.3 0.2-0.5 0.3-0.3 0.1-0.6 0.3-0.8 0.4l-0.6 0.3c-0.3 0.1-0.5 0.2-0.8 0.3-0.2 0.1-0.5 0.2-0.7 0.3-0.2 0.1-0.5 0.2-0.7 0.3-0.3 0.1-0.5 0.2-0.8 0.3-0.2 0.1-0.4 0.1-0.6 0.2l-0.9 0.3c-0.2 0.1-0.4 0.1-0.5 0.2-0.3 0.1-0.6 0.2-1 0.3-0.2 0-0.3 0.1-0.5 0.1-0.3 0.1-0.7 0.2-1 0.2-0.2 0-0.3 0.1-0.5 0.1-0.3 0.1-0.7 0.1-1 0.2-0.2 0-0.4 0.1-0.6 0.1-0.3 0-0.6 0.1-0.9 0.1-0.3 0-0.5 0-0.8 0.1-0.3 0-0.5 0-0.8 0.1h-3c-0.3 0-0.5 0-0.8-0.1-0.3 0-0.5 0-0.8-0.1-0.3 0-0.6-0.1-0.9-0.1-0.2 0-0.4 0-0.6-0.1-0.3 0-0.7-0.1-1-0.2-0.2 0-0.3-0.1-0.5-0.1-0.3-0.1-0.7-0.1-1-0.2-0.2 0-0.3-0.1-0.5-0.1-0.3-0.1-0.7-0.2-1-0.3-0.2-0.1-0.4-0.1-0.5-0.2l-0.9-0.3c-0.2-0.1-0.4-0.1-0.6-0.2-0.3-0.1-0.5-0.2-0.8-0.3-0.2-0.1-0.5-0.2-0.7-0.3-0.2-0.1-0.5-0.2-0.7-0.3-0.3-0.1-0.5-0.2-0.8-0.3l-0.6-0.3c-0.3-0.1-0.6-0.3-0.8-0.4-0.2-0.1-0.3-0.2-0.5-0.3-0.3-0.2-0.6-0.3-0.9-0.5-0.2-0.1-0.3-0.2-0.4-0.3l-0.9-0.6c-0.1-0.1-0.3-0.2-0.4-0.3-0.3-0.2-0.6-0.4-0.8-0.6-0.2-0.1-0.3-0.3-0.5-0.4-0.2-0.2-0.5-0.4-0.7-0.6-0.2-0.2-0.4-0.4-0.6-0.5-0.2-0.2-0.4-0.3-0.6-0.5-0.8-0.7-1.5-1.5-2.2-2.2-0.2-0.2-0.3-0.4-0.5-0.6-0.2-0.2-0.4-0.4-0.5-0.6-0.2-0.2-0.4-0.5-0.6-0.7-0.1-0.2-0.3-0.3-0.4-0.5-0.2-0.3-0.4-0.6-0.6-0.8-0.1-0.1-0.2-0.3-0.3-0.4l-0.6-0.9c-0.1-0.1-0.2-0.3-0.3-0.4-0.2-0.3-0.3-0.6-0.5-0.9-0.1-0.2-0.2-0.3-0.3-0.5-0.1-0.3-0.3-0.6-0.4-0.8l-0.3-0.6c-0.1-0.3-0.2-0.5-0.3-0.8-0.1-0.2-0.2-0.5-0.3-0.7-0.1-0.2-0.2-0.5-0.3-0.7-0.1-0.3-0.2-0.5-0.3-0.8-0.1-0.2-0.1-0.4-0.2-0.6l-0.3-0.9c-0.1-0.2-0.1-0.4-0.2-0.5-0.1-0.3-0.2-0.6-0.3-1 0-0.2-0.1-0.3-0.1-0.5-0.1-0.3-0.2-0.7-0.2-1 0-0.2-0.1-0.4-0.1-0.5-0.1-0.3-0.1-0.7-0.2-1 0-0.2-0.1-0.4-0.1-0.6 0-0.3-0.1-0.6-0.1-0.9 0-0.3 0-0.5-0.1-0.8 0-0.2 0-0.5-0.1-0.7v-705.5c0-17.7 14.3-32 32-32s32 14.3 32 32V658.8L839 492.4c12.5-12.5 32.8-12.5 45.3 0 12.3 12.5 12.3 32.8-0.2 45.3z"  horiz-adv-x="1024" />

    
    <glyph glyph-name="arrow" unicode="&#58884;" d="M250.92 384.034L719.998-63.56899999999996l53.081 50.694-415.937 396.863L773.05 780.875l-53.044 50.694L250.92 384.034z"  horiz-adv-x="1024" />

    
    <glyph glyph-name="ducha" unicode="&#58988;" d="M543.477434 177.877436H380.882769v-19.063143h-46.170003v233.407269h320.818756l-0.185982-0.325468h1.53435v-50.773056a219.644609 219.644609 0 0 0 105.079767 26.59541c37.103387 0 72.067981-9.159608 102.754993-25.340032-0.836918 29.850093-5.486466 58.444808-14.320605 98.430914l-3.161693 14.320605-3.161692 14.599579c-6.88133 33.011785-10.229004 58.723781-10.229003 87.179009 0 56.120035 12.367796 112.612033 36.684927 169.243518l-12.786255 14.227615-10.043022 11.158913c-70.022181-23.061754-124.700856-34.732118-165.52388-34.732118-40.218583 0-113.913906 15.250515-179.472521 36.638432-67.092966-22.317827-131.628681-36.638432-170.545391-36.638432-40.823024 0-95.501699 11.670363-165.52388 34.778613l-10.043022-11.158913-12.786255-14.320605c24.317132-56.584989 36.638432-113.076988 36.638432-169.197023 0-28.455229-3.301179-54.120729-10.182509-87.179009-0.929909-4.463565-1.906314-9.066617-3.161692-14.599579l-3.161692-14.320605c-13.204714-59.839672-17.063838-94.06034-12.739759-145.344845 8.369185-99.732787 83.738345-199.00062 161.339287-219.7376 65.093661-21.480908 140.230343-60.304627 198.861134-104.149858a864.07185 864.07185 0 0 0 70.859099 47.611364 219.598114 219.598114 0 0 0-38.730728 158.689045z m111.775115-223.875697c-35.941-19.760576-77.461456-47.239399-106.428135-71.277558a46.402481 46.402481 0 0 0-39.753629-9.624563 46.355985 46.355985 0 0 0-35.987495 10.275499c-51.609974 42.82233-127.258107 83.412877-187.144274 103.266443-114.750825 30.547525-215.878476 163.803548-227.455849 301.011685-5.253988 62.350428-0.464955 105.033271 14.646074 173.242129l3.115196 14.181119 2.929215 13.623173c5.672448 27.339337 8.229699 47.099913 8.229698 68.208857 0 50.680064-13.251209 102.754993-40.311574 156.59675a46.495472 46.495472 0 0 0 6.974321 51.888946l33.244263 37.056892 30.501029 34.08118A46.495472 46.495472 0 0 0 167.933508 849.365042c75.276169-26.502419 130.745267-39.567647 164.129016-39.567647 28.54822 0 89.596774 14.041633 151.854211 35.42955a46.495472 46.495472 0 0 0 18.644684 3.859124 46.495472 46.495472 0 0 0 18.644684-3.812629c59.467709-20.365017 130.233817-35.476045 160.920829-35.476045 33.47674 0 88.899342 13.018732 164.175511 39.567647a46.495472 46.495472 0 0 0 50.122119-12.832751l30.501029-34.08118 33.244263-37.056892a46.495472 46.495472 0 0 0 6.974321-51.888946c-27.060365-53.888252-40.311574-105.916685-40.311575-156.59675 0-21.108944 2.557251-40.916015 8.229699-68.208857l2.929215-13.623173 3.161692-14.181119c15.064533-68.208857 19.853567-110.891701 14.599578-173.242129a46.262995 46.262995 0 0 0-7.718248-22.038853 220.528023 220.528023 0 0 0-292.781987-311.612653z m-45.937526 352.435677v24.503114-24.549609z m-47.704354-66.813993H380.882769v-25.57251h170.824364c2.789728 8.741149 6.137402 17.296316 9.950031 25.57251z m18.970152 33.151271c6.416375 9.206103 13.530182 17.947252 21.248431 26.08396H380.882769v-26.08396h199.744548zM356.751619 623.722516h43.705744v-21.573898h82.808435v-36.173478H400.457363v-23.573204h99.407319v-39.149187H407.989629v-101.96457h-44.170698V503.252749H274.873093v39.149187h81.832031v81.367076z m24.084655-292.22404h228.478749v24.6426H380.836274v-24.6426z m78.85632 160.68835c13.018732-21.108944 24.084654-44.170698 33.151272-68.813298l-34.174172-15.064533a539.812429 539.812429 0 0 1-35.150577 72.346954l36.173477 11.530877z m63.745292 62.257437h-20.086044V595.639251h191.840317v-38.684232a219.179655 219.179655 0 0 0-54.260215-87.876442 455.19067 455.19067 0 0 1 77.83342-34.639127l-20.597494-38.637737c-36.126982 12.553777-66.767498 27.571815-91.363603 44.635653a344.066492 344.066492 0 0 0-83.831336-41.659943l-20.597494 39.660638c27.10686 8.555167 50.680064 18.598189 70.766109 30.687011a202.534276 202.534276 0 0 0-49.70366 85.319191z m82.343481-60.258131c18.598189 18.086739 32.639821 38.126287 41.706438 60.258131h-81.367076c5.579457-22.085349 18.598189-42.171393 39.660638-60.258131z m-294.223346-1.999306l39.660637-8.043716c-11.530877-35.150577-27.10686-65.791093-47.192904-91.875053l-34.127676 21.573899c19.063143 24.13115 33.151271 50.21511 41.659943 78.34487z m581.79784-346.809725c0-0.464955 0-0.883414 0.464954-1.348368v-0.464955c0-0.418459-0.464955-0.418459-0.464954-0.418459-23.991664-49.331696-74.253269-82.715445-125.816747-82.715445-51.145019 0-101.825083 32.918794-125.863243 82.76194 0 0.418459 0 0.418459-0.464955 0.41846v2.231782c0 0.464955 0 0.464955 0.464955 0.464955 24.038159 48.866741 73.834809 82.25049 125.863243 82.25049 52.028433 0 101.825083-33.383749 125.816747-83.1804z m-125.816747-53.376801c29.757102 0 54.260216 23.154745 54.260215 52.493387s-24.038159 52.493388-54.260215 52.493388c-29.385138 0-54.260216-23.154745-54.260216-52.493388s23.991664-52.493388 54.260216-52.493387z m157.619649 48.029822c0.418459 0.883414 0.418459 2.650242 0.41846 3.533656 0.929909 1.766828 0.929909 3.115197 0.929909 5.346979s-0.464955 3.533656-0.464955 3.533656c0 0.929909-0.464955 2.696737-0.929909 3.580152 0 0.464955-0.464955 0.464955-0.464955 0.464954-0.418459 0.464955-0.418459 0.883414-0.418459 0.883414-29.338643 63.55931-94.246322 105.823694-160.502369 105.823694-66.256047 0-131.210222-42.682843-160.548865-105.823694-0.464955-1.348369-0.464955-1.348369-0.929909-2.231782 0-0.464955-0.418459-0.464955-0.418459-0.464955-0.464955-1.766828-0.464955-2.650242-0.464955-2.650242-0.418459-0.929909-0.418459-3.580151-0.418459-3.580151v-2.185288s0.464955-2.231783 0.464954-2.696737c0-0.883414 0.464955-1.301873 0.464955-2.231783 0.418459-1.301873 0.418459-1.301873 0.418459-2.185287 0.464955-0.464955 0.464955-0.929909 0.464955-0.929909 30.222057-63.55931 94.711276-105.823694 160.502369-105.823694 66.256047 0 131.163726 42.264384 160.548865 104.94028 0.464955 1.348369 0.883414 1.813323 0.883414 2.231782 0 0.464955 0.464955 0.464955 0.464954 0.464955z"  horiz-adv-x="1024" />

    
    <glyph glyph-name="chenggong" unicode="&#58927;" d="M512 384m-512 0a512 512 0 1 1 1024 0 512 512 0 1 1-1024 0ZM178.614857 338.139429a42.496 42.496 0 0 0 60.123429 60.050285l85.942857-87.625143a42.496 42.496 0 0 0-60.050286-60.123428L178.614857 338.139429z m561.005714 250.148571a42.496 42.496 0 1 0 65.097143-54.637714L394.459429 170.422857a42.496 42.496 0 0 0-65.097143 54.637714l410.112 363.373715z"  horiz-adv-x="1024" />

    
    <glyph glyph-name="wenjianyisong" unicode="&#58916;" d="M22.8 772.4h76.7c24.9 0 45 20.2 45 45V894.1L22.8 772.4zM209-126.2c164.8 78.6 286.5 213.9 384 338.8l-128 68c-16.4 9-13.7 33.2 4.2 38.5L859 510.2V826.4c0 37.3-30.6 67.8-68 67.8H166.8v-75.9c0-37.6-30.5-68-68-68h-76v-808.7c0-37.3 30.6-67.8 68-67.8H791c37.4 0 68 30.5 68 67.8V45.2c-63.4-69.2-131.2-129.9-211-171.4H209z m-20.3 833.9h504.6c25 0 45.4-20.2 45.4-45.2s-20.3-45.2-45.4-45.2H188.6c-25 0-45.3 20.2-45.3 45.2s20.3 45.2 45.4 45.2z m0-220.6h296.9c25 0 45.4-20.2 45.4-45.2s-20.3-45.2-45.4-45.2h-297c-25 0.1-45.3 20.3-45.3 45.2 0 25 20.3 45.2 45.4 45.2z m-45.5-265.6c0 25 20.3 45.2 45.4 45.2h160.2c25.1 0 45.4-20.2 45.4-45.2s-20.3-45.2-45.4-45.2H188.6c-25 0-45.4 20.2-45.4 45.2zM619.8 305.2l234.1 100.4c7.4 3.2 15.8-0.3 18.8-7.7l95.6-236.1c4.8-12-7.1-24.1-18.9-19.3L619.7 278.2c-11.8 4.8-11.8 21.9 0.1 27zM856.4 201.4C778 11.6 588.9-99.1 394.7-86.8c-2.2 0.1-2.7 3.1-0.7 4C537.9-18.3 658.5 99 724 256l132.4-54.6z"  horiz-adv-x="1024" />

    
    <glyph glyph-name="touxiang" unicode="&#58890;" d="M0 384c0-282.768 229.232-512 512-512s512 229.232 512 512S794.768 896 512 896 0 666.768 0 384zM512-128c186.408 0 349.504 99.648 439.048 248.552l-0.032 0.712c-25.824 39.296-203.232 98.808-272.84 98.808-138.096-241.408-324.488-41.544-321.12-2.248-96.448 6.632-212.68-63.024-277.184-108.288C170.736-33.216 330.248-128 512-128zM359.264 206.92c21.288-55.136 190.848-210.712 318.912 13.152 1.016 0 2.128-0.056 3.184-0.08-24.08 22.832-42.64 60.784-35.496 129.744-64.312-100.656-186.76-106.624-249.68-2.632 4.584-30.384 2.336-78.12-36.92-140.184zM392.848 341.896c5.688-20.208 152.688-157.472 285.896-123.792-38.984 48-25.176 122.944-22.744 167.576 13.8 30.32-259.096-16.84-263.152-43.784zM687.488 504.616c-0.824-45.4-8.952-84.488-22.168-116.984 73.792 21.08 91.2 187.024 22.168 116.984zM649.688 613.056c-145.128-32.56-204.984 33.688-234.632 53.896-47.432-37.896-35.576-125.472-50.824-141.472a101.384 101.384 0 0 0-7.192 10.32c-13.264-361.296 333.744-336.824 330.528-19.144-31.32 48.008-25.712 49.104-37.88 96.4zM415.056 666.944c29.648-20.208 89.504-86.456 234.632-53.896 12.424-48.28 6.208-48.28 39.808-99.368 24.56-8.424 95.72 233.264-112.664 266.104-243.944 37.896-275.28-176.84-212.6-254.312 15.248 16 3.392 103.584 50.824 141.472z"  horiz-adv-x="1024" />

    
    <glyph glyph-name="riqixuanze" unicode="&#58897;" d="M353.69349981 251.38327030999994H292.01600674a42.05539161 42.05539161 0 0 1-41.77427257-42.44895879v-62.80196836a42.22406338 42.22406338 0 0 1 41.77427257-42.4489579h61.67749306a41.99916797 41.99916797 0 0 1 41.77427257 42.4489579v62.91441651a42.16783886 42.16783886 0 0 1-41.77427257 42.44895791v-0.11244727z m195.9961166 0H488.01212422a42.05539161 42.05539161 0 0 1-41.77427344-42.44895879v-62.80196836a42.16783886 42.16783886 0 0 1 41.77427344-42.4489579h61.67749219a41.99916797 41.99916797 0 0 1 41.77427343 42.4489579v62.91441651a41.94294433 41.94294433 0 0 1-41.77427343 42.44895791v-0.11244727z m0 184.52646387H488.01212422a41.94294433 41.94294433 0 0 1-41.77427344-42.39273428v-62.91441562a42.16783886 42.16783886 0 0 1 41.77427344-42.50518243h61.67749219a42.16783886 42.16783886 0 0 1 41.77427343 42.50518243V393.5169999a41.71804893 41.71804893 0 0 1-12.08811445 29.85483076 41.77427256 41.77427256 0 0 1-29.68615898 12.53790352z m195.32143213 0h-61.67749307a41.99916797 41.99916797 0 0 1-41.77427256-42.39273428v-62.91441562a42.16783886 42.16783886 0 0 1 41.77427256-42.50518243h61.67749307a42.16783886 42.16783886 0 0 1 41.77427255 42.50518243V393.5169999a41.71804893 41.71804893 0 0 1-12.08811445 29.85483076 41.77427256 41.77427256 0 0 1-29.6861581 12.53790352z m0-184.52646387h-61.67749307a42.05539161 42.05539161 0 0 1-41.77427256-42.44895879v-62.80196836a42.22406338 42.22406338 0 0 1 41.77427256-42.4489579h61.67749307a41.99916797 41.99916797 0 0 1 41.77427255 42.4489579v62.91441651a41.94294433 41.94294433 0 0 1-41.77427255 42.44895791v-0.11244727z m146.51918525 503.65267207h-44.97902842a31.09175332 31.09175332 0 0 1-30.81063516-32.10378222v-74.60896378a98.39162461 98.39162461 0 1 0-196.61457831 0V722.93216016a31.48531963 31.48531963 0 0 1-9.10825313 22.60196191 31.48531963 31.48531963 0 0 1-22.43329013 9.50182032H440.44680166a31.54154414 31.54154414 0 0 1-31.48532051-32.10378223v-74.60896378a97.9980583 97.9980583 0 1 0-195.93989297 0V722.93216016a31.71021504 31.71021504 0 0 1-31.48531962 32.10378222h-49.47693135A70.61707441 70.61707441 0 0 1 62.0045 683.57551084v-678.1150793A70.84196982 70.84196982 0 0 1 132.05933721-66h759.47089657A70.84196982 70.84196982 0 0 1 961.58507099 5.460431539999945V683.57551084a70.72952256 70.72952256 0 0 1-70.05483721 71.46043155z m-23.78266171-694.13885771v-2.08028057a31.03552969 31.03552969 0 0 0-29.51748721-29.68615899H185.35948613a31.37287237 31.37287237 0 0 0-29.57371171 30.0797253V470.59981055a30.97930605 30.97930605 0 0 0 30.86685878 30.13594893h650.28430459a30.69818701 30.69818701 0 0 0 30.81063428-29.62993536v-410.20873945zM716.78670752 593.50500586a54.48084873 54.48084873 0 0 1 53.97483428 54.98686231h0.61846172V785.84657666a54.14350518 54.14350518 0 0 1-107.94966856-7.08419707v-137.3547085c3.03608408-27.21231211 25.97538867-47.79021797 53.35637256-47.90266523z m-406.10440371 0a54.70574326 54.70574326 0 0 1 54.593296 54.98686231V785.84657666a53.86238701 53.86238701 0 0 1-107.2749832-7.08419707h-0.67468536v-137.3547085a54.42462422 54.42462422 0 0 1 53.35637256-47.90266523z"  horiz-adv-x="1024" />

    
    <glyph glyph-name="jianshe-Icon" unicode="&#58911;" d="M500.271612 895.906918h413.937642c26.063085 0 47.704754-23.410235 47.704754-53.010454v-949.580584a21.269339 21.269339 0 0 0-21.408963-21.31588h-98.807018a21.408963 21.408963 0 0 0-21.408962 21.548586v171.457868c0 25.364967-19.174984 46.075811-43.981457 46.075811h-138.320516c-24.71339 0-44.214162-20.710844-44.214162-46.075811v-171.457868a21.408963 21.408963 0 0 0-21.455504-21.548586H44.539951A20.990092 20.990092 0 0 0 23.317153-106.916826l2.047814 461.223525c0 30.205254 21.408963 53.429325 47.332424 53.429325h382.103445l-0.279247 435.16044C454.521589 873.101718 474.860104 895.906918 500.271612 895.906918zM449.960549 277.280974a21.31588 21.31588 0 0 1-42.678302 0v-298.60849a21.31588 21.31588 0 0 1 42.678302 0v298.60849z m-127.988365 0a21.31588 21.31588 0 0 1-42.678302 0v-298.60849a21.31588 21.31588 0 0 1 42.678302 0v298.60849z m-127.988364 0a21.31588 21.31588 0 0 1-42.678302 0v-298.60849a21.31588 21.31588 0 0 1 42.678302 0v298.60849z m677.919462 408.306154V762.147441c0 12.705754-9.401327 23.270612-20.990092 23.270612h-71.673485c-12.426507 0-21.734751-10.564858-21.734751-23.270612v-76.560313c0-12.752295 9.308245-22.712117 21.781293-22.712117h71.626943c11.588765 0 20.943551 9.959822 20.94355 22.712117z m0-201.383874V561.135897c0 12.705754-9.401327 23.270612-20.990092 23.270611h-71.673485c-12.426507 0-21.734751-10.564858-21.734751-23.270611v-76.932643c0-12.705754 9.308245-22.8052 21.781293-22.805199h71.626943c11.588765 0 20.943551 10.099446 20.94355 22.805199z m0-207.760022v76.932643c0 13.217707-9.401327 23.456777-20.990092 23.456777h-71.673485c-12.426507 0-21.734751-10.239069-21.734751-23.456777v-76.932643c0-12.426507 9.308245-22.013999 21.781293-22.013998h71.626943a21.362422 21.362422 0 0 1 20.94355 22.013998z m-207.108445 409.143896V762.147441c0 12.705754-9.959822 23.270612-21.502045 23.270612h-71.766567c-11.914553 0-21.874375-10.564858-21.874375-23.270612v-76.560313c0-12.752295 9.959822-22.712117 21.874375-22.712117h71.766567a22.246705 22.246705 0 0 1 21.502045 22.712117z m0-201.383874V561.135897c0 12.705754-9.959822 23.270612-21.502045 23.270611h-71.766567c-11.914553 0-21.874375-10.564858-21.874375-23.270611v-76.932643c0-12.705754 9.959822-22.8052 21.874375-22.805199h71.766567c11.542223 0 21.502045 10.099446 21.502045 22.805199z m0-207.760022v76.932643c0 13.217707-9.959822 23.456777-21.502045 23.456777h-71.766567c-11.914553 0-21.874375-10.239069-21.874375-23.456777v-76.932643a21.874375 21.874375 0 0 1 21.874375-22.013998h71.766567a21.827834 21.827834 0 0 1 21.502045 22.013998z"  horiz-adv-x="1024" />

    
    <glyph glyph-name="ziyuan" unicode="&#58910;" d="M1015.436544-78.081431L690.815554 246.539559a393.008397 393.008397 0 1 1-41.353923-41.353923l324.62099-324.62099a29.225387 29.225387 0 0 1 41.353923 41.353923zM59.547186 502.407826a334.046178 334.046178 0 1 0 334.046178-333.973114A334.411495 334.411495 0 0 0 59.547186 502.407826z"  horiz-adv-x="1025" />

    
    <glyph glyph-name="querenduigougouhao" unicode="&#58982;" d="M403.3 236.1c18 16.3 32.2 28.6 45.7 41.6 129.2 124.4 258.6 248.7 387.3 373.5 31.2 30.2 63.8 45.4 102 13.8 32-26.4 27.2-63.2-12.6-101.7C773.2 415.7 620.2 268.2 467.1 121c-48-46.1-74.1-46.4-121.2-1.5-83.1 79.4-165.3 159.8-248.5 239.1C66 388.5 50.1 420 82.8 456.9c27.4 30.9 65.6 26.4 105.5-11.9 71.3-68.5 141.9-137.8 215-208.9z"  horiz-adv-x="1024" />

    
    <glyph glyph-name="chaxun1" unicode="&#58908;" d="M816.459-124.79c3.04 0 6.18 0.538 9.348 1.529a250.99 250.99 0 0 0-27.58-1.529h18.232z m-46.8 319.863c-24.047 0-43.554-19.43-43.554-43.404 0-23.975 19.507-43.405 43.555-43.405 24.072 0 43.58 19.43 43.58 43.405 0 23.974-19.507 43.404-43.58 43.404z m28.567 123.551c-108.821 0-197.04-87.845-197.04-196.241s88.219-196.291 197.04-196.291c108.795 0 197.013 87.896 197.013 196.29 0.001 108.4-88.217 196.242-197.013 196.242zM893.1 7.011a21.824 21.824 0 0 0-15.412 6.352l-63.83 63.606c-12.98-7.644-28.042-12.087-44.198-12.087-48.12 0-87.13 38.838-87.13 86.787 0 47.923 39.01 86.785 87.13 86.785s87.133-38.862 87.133-86.785c0-16.083-4.467-31.097-12.134-44.026l63.851-63.581c3.921-3.945 6.38-9.357 6.38-15.362 0-11.987-9.755-21.69-21.79-21.69zM206.69 714.86c24.077 0 50.837 26.86 50.837 50.837V841.954c0 23.978-16.731 50.837-50.837 50.837-29.19 0-50.837-26.859-50.837-50.837v-76.256c0-23.978 26.76-50.837 50.837-50.837z m228.764 0c41.207 0 50.838 26.86 50.838 50.837V841.954c0 23.978-14.2 50.837-50.838 50.837-35.992 0-50.837-26.859-50.837-50.837v-76.256c0-23.978 17.698-50.837 50.837-50.837z m228.764 0c33.112 0 50.837 26.86 50.837 50.837V841.954c0 23.978-17.723 50.837-50.837 50.837-29.19 0-50.838-26.859-50.838-50.837v-76.256c0.001-23.978 26.785-50.837 50.838-50.837z m152.51-838.797c3.025 0 6.15 0.535 9.303 1.52a250.387 250.387 0 0 0-27.447-1.52h18.144z m-265.08 245.99c0 135.828 110.558 245.941 246.936 245.941 24.572 0 48.299-3.593 70.7-10.252l-1.72 382.536c0 23.982-26.758 50.838-50.836 50.838h-50.838v-50.838c0-47.956-53.543-76.254-101.672-76.254s-101.672 28.297-101.672 76.254v50.838h-25.42v-50.838c0-47.956-53.914-76.254-101.67-76.254-77.572 0-101.672 53.715-101.672 101.671v25.42h-25.42v-25.419c-0.05-48.203-38.275-101.275-103.982-101.275-48.13 0-99.364 36.191-99.364 101.275v25.42H79.598c-24.077 0-50.837-26.857-50.837-50.839v-806.331c0-23.98 26.758-57.884 50.837-57.884h718.984c-136.374 0-246.936 110.112-246.936 245.99zM181.27 511.515s530.159-2.333 531.524 0c24.599 0.894 53.095-14.645 53.095-50.837 0-34.205-26.757-50.836-50.837-50.836H181.271c-24.078 0-50.837 12.559-50.837 50.836 0.001 32.468 26.759 50.837 50.837 50.837z m228.764-508.364H181.271c-20.058 0-50.837 11.418-50.837 50.838 0 29.835 30.78 53.568 50.837 53.568l228.764-2.731c20.057 0 50.838-11.022 50.838-50.837 0-31.574-30.781-50.838-50.838-50.838z m50.838 203.347H181.271c-24.078 0-50.837 15.885-50.837 50.836 0 38.575 26.758 50.837 50.837 50.837h279.601c24.075 0 50.836-18.964 50.836-50.837 0-23.979-26.76-50.836-50.835-50.836z"  horiz-adv-x="1024" />

    
    <glyph glyph-name="jurassic_milestone" unicode="&#59075;" d="M156 832v-896l356 280 356-280V832H156z m511.8-556.4L512 357.5l-155.7-81.9L386 449 260 571.8l174.1 25.3L512 754.9l77.9-157.8L764 571.8 638 449l29.8-173.4z"  horiz-adv-x="1024" />

    
    <glyph glyph-name="jungongyanshou" unicode="&#58899;" d="M800.237 89.6c-1.896-1.896-3.793-3.793-5.215-5.689 8.06-13.274 18.015-25.126 30.815-36.03 14.222 12.326 24.652 26.075 32.237 41.719h-57.837zM768 384c-141.274 0-256-114.726-256-256s114.726-256 256-256 256 114.726 256 256-114.726 256-256 256z m27.022-98.133l34.608-10.43c-15.17-21.333-29.867-38.874-45.037-51.674 31.288 3.318 55.466 6.637 73.007 9.007-5.689 6.637-10.43 13.274-16.119 19.437l26.075 16.593c21.807-23.23 38.4-43.615 49.777-61.63l-27.496-18.963c-4.267 6.637-8.06 12.8-12.326 18.963-48.355-6.163-94.34-11.377-137.955-14.696l-6.163 29.393c19.91 8.059 40.77 29.866 61.63 64z m128.948-138.43l-23.703-24.178c-18.49 18.49-39.823 36.504-63.526 53.57l22.755 21.334c17.541-10.904 38.874-27.97 64.474-50.726z m-115.2 26.548c-17.066-19.91-37.451-37.452-62.103-52.622l-20.386 27.022c23.704 12.8 43.141 27.97 59.734 45.511l22.755-19.91z m-197.214 58.311h44.088c-3.318 15.645-7.585 29.867-11.377 43.141l35.081 5.689c3.319-14.222 6.637-30.815 10.43-49.304H729.6v-33.659H611.556v34.133zM661.807 51.2l-28.444-6.637c-3.319 45.037-8.06 88.652-13.748 130.844l30.815 10.43c4.266-39.348 8.059-83.911 11.377-134.637z m-53.57-27.022c20.86 2.844 41.244 6.637 61.63 11.378 8.059 47.881 14.222 98.607 17.54 152.177l33.66-4.74c-4.267-50.252-10.904-96.712-18.963-139.378 9.007 2.844 18.489 5.689 27.496 8.533v-34.133c-35.081-10.904-72.533-20.385-112.356-27.97l-9.007 34.133z m307.2-53.097c-36.03 8.534-65.896 20.86-90.074 36.504-24.178-15.17-54.044-27.97-89.6-37.926l-16.593 30.815c31.29 6.637 57.837 16.593 79.645 28.445-10.904 10.43-19.911 21.807-27.496 33.659-9.008-6.637-18.49-13.748-27.97-19.911l-21.808 27.97c41.244 23.704 69.215 53.096 83.437 87.23l32.71-7.111c-4.266-10.904-9.007-20.86-14.695-30.341h71.11v-28.445c-7.584-23.703-21.333-45.037-40.77-62.577 20.386-11.378 45.511-20.86 73.956-27.497l-11.852-30.815zM489.719 98.607H342.28V210.49h158.341C535.704 324.74 642.37 407.704 768 407.704c38.874 0 75.852-8.06 109.511-22.282V704.948h-266.43V896H4.741v-948.148h548.978c-34.608 41.718-57.838 93.867-64 150.755z m168.296 489.719h146.489v-113.778h-146.49V588.326zM342.28 761.837H504.89v-111.881H342.28V761.837z m0-286.34H504.89v-113.778H342.28V475.496z m-82.014-376.89H97.659V210.49h162.608v-111.882z m0 262.637H97.659V475.022h162.608v-113.778z m0 288.712H97.659V761.837h162.608v-111.881z"  horiz-adv-x="1024" />

    
    <glyph glyph-name="tupianshangchuan" unicode="&#59005;" d="M85.333333 469.333333v-426.666666h853.333334V469.333333h85.333333v-512H0V469.333333h85.333333z m542.037334-85.333333l225.92-196.565333L853.333333 128H170.666667v56.192l111.616 97.066667 113.493333-98.688L627.370667 384zM351.701333 810.666667l180.992-181.034667H394.368V384h-85.333333V629.632H170.666667L351.701333 810.666667z"  horiz-adv-x="1024" />

    
    <glyph glyph-name="jujue1" unicode="&#58881;" d="M18.285714 896h1024v-1024H18.285714zM188.952381 810.666667h682.666667a42.666667 42.666667 0 0 0 42.666666-42.666667v-554.666667a256 256 0 0 0-256-256H188.952381a42.666667 42.666667 0 0 0-42.666667 42.666667V768a42.666667 42.666667 0 0 0 42.666667 42.666667z m404.693333-429.696l90.538667 90.496a42.666667 42.666667 0 0 1-60.373333 60.330666l-90.453334-90.453333-90.538666 90.453333A42.666667 42.666667 0 1 1 382.488381 471.466667l90.453333-90.496-90.453333-90.496a42.666667 42.666667 0 1 1 60.330667-60.373334l90.496 90.538667 90.496-90.538667a42.666667 42.666667 0 1 1 60.373333 60.373334l-90.538667 90.453333zM218.819048 738.133333m-42.666667 0a42.666667 42.666667 0 1 1 85.333333 0 42.666667 42.666667 0 1 1-85.333333 0Z"  horiz-adv-x="1170" />

    
    <glyph glyph-name="cuohao" unicode="&#58909;" d="M568.9344 374.5792l300.2368 300.2368a39.3216 39.3216 0 0 1 0 55.296l-1.6384 1.6384a39.3216 39.3216 0 0 1-55.296 0L512 431.104 211.7632 731.7504a39.3216 39.3216 0 0 1-55.296 0l-1.6384-1.6384a38.5536 38.5536 0 0 1 0-55.296l300.2368-300.2368-300.2368-300.2368a39.3216 39.3216 0 0 1 0-55.296l1.6384-1.6384a39.3216 39.3216 0 0 1 55.296 0L512 317.64480000000003l300.2368-300.2368a39.3216 39.3216 0 0 1 55.296 0l1.6384 1.6384a39.3216 39.3216 0 0 1 0 55.296l-300.2368 300.2368z"  horiz-adv-x="1024" />

    
    <glyph glyph-name="fenxiang" unicode="&#60056;" d="M853.578 234.285c-65.68 0-119.381-35.158-144.39-89.736L391.713 279.59c18.518 28.693 28.692 63.85 28.692 101.764 0 15.711-1.854 31.448-5.563 46.258l202.703 157.269c26.864-20.348 61.12-32.376 99.059-32.376 91.641 0 160.128 68.46 160.128 159.097 0 90.663-68.512 159.124-160.128 159.124-91.641 0-159.2-68.46-159.2-159.124 0-23.129 4.636-44.404 12.028-62.897L382.44 505.32c-37.012 55.505-98.106 94.372-167.52 94.372A204.97 204.97 0 0 1 9.438 394.309a204.97 204.97 0 0 1 205.485-205.356c42.575 0 82.369 11.076 114.77 31.423l364.711-155.388c4.636-86.027 71.268-149.851 159.175-149.851 91.667 0 159.226 68.435 159.226 159.097 0 90.663-68.512 160.05-159.2 160.05z"  horiz-adv-x="1024" />

    


  </font>
</defs>
</svg>
